<svg width="200" height="200" xmlns="http://www.w3.org/2000/svg" version="1.1">
 <g>
  <title>Layer 1</title>
  <g stroke="null" id="svg_1">
   <path stroke="null" d="m80.02559,102.51754c-4.18384,0 -7.59193,-3.41871 -7.59193,-7.61607c0,-4.18384 3.40526,-7.59193 7.59193,-7.59193c4.19728,0 7.61607,3.40526 7.61607,7.59193c0,4.19997 -3.41871,7.61607 -7.61607,7.61607zm0,-9.97337c-1.30121,0 -2.36268,1.05879 -2.36268,2.36268c0,1.31197 1.05879,2.3842 2.36268,2.3842c1.31197,0 2.3842,-1.07224 2.3842,-2.3842c0,-1.30659 -1.07224,-2.36268 -2.3842,-2.36268z" id="svg_2"/>
   <path stroke="null" d="m119.41975,102.51754c-4.19728,0 -7.61607,-3.41871 -7.61607,-7.61607c0,-4.18384 3.41871,-7.59193 7.61607,-7.59193c4.19728,0 7.60227,3.40526 7.60227,7.59193c0.0027,4.19997 -3.40526,7.61607 -7.60227,7.61607zm0,-9.97337c-1.31197,0 -2.3842,1.05879 -2.3842,2.36268c0,1.31197 1.07224,2.3842 2.3842,2.3842c1.31197,0 2.37344,-1.07224 2.37344,-2.3842c0.0027,-1.30659 -1.05603,-2.36268 -2.37344,-2.36268z" id="svg_3"/>
   <path stroke="null" d="m116.26104,119.5042c0.25593,-0.35561 0.44721,-0.71664 0.56306,-1.01837c0.50917,-1.33893 0.77857,-4.09494 -3.04967,-7.43813l-4.67144,-4.08149c-4.86006,-4.26198 -13.31898,-4.31046 -18.25773,-0.12662l-5.04055,4.28618c-3.87941,3.30561 -3.63424,6.04809 -3.15202,7.37606c0.11315,0.30712 0.30712,0.66273 0.54959,1.01837c-0.15356,0.26671 -0.30712,0.53611 -0.39602,0.78933c-0.48223,1.58142 -0.21552,4.04376 3.86597,6.84018l3.76355,2.52434c2.55124,1.74846 5.90802,2.70483 9.44232,2.70483c3.62348,0 7.05536,-1.01023 9.65819,-2.81794l3.34064,-2.33572c4.04376,-2.81794 4.29701,-5.30725 3.80127,-6.88867c-0.08891,-0.2694 -0.25593,-0.54959 -0.41758,-0.83244l0.00041,0.00006zm-27.06417,-4.40205l5.04055,-4.28618c3.02539,-2.55124 8.43264,-2.52434 11.41755,0.07543l4.67144,4.08149c0.94292,0.82975 1.32548,1.40362 1.53294,1.55715c-0.30712,0.12662 -0.98334,0.32059 -2.23337,0.32059l-19.79018,0c-0.9052,0 -1.51942,-0.10238 -1.87508,-0.10238c-0.12662,0 -0.21552,0.01347 -0.28018,0.05119c0.16434,-0.3179 0.5873,-0.9052 1.51673,-1.69722l-0.00038,-0.00006zm20.69573,7.83124l-3.34064,2.33572c-3.38099,2.37344 -9.79819,2.39772 -13.17897,0.07544l-3.76355,-2.52434c-0.36909,-0.25593 -0.6762,-0.48223 -0.91865,-0.68967c0.32059,-0.04041 0.68967,-0.05119 1.15038,-0.05119l19.79018,0c0.52264,0 0.94292,0.02694 1.277,0.06466c-0.24785,0.23169 -0.58191,0.48762 -1.01568,0.78933l-0.00007,0.00006z" id="svg_4"/>
   <path stroke="null" d="m164.44854,98.65537c0,-27.11245 -21.2047,-49.76961 -49.54063,-55.81804c16.65217,-12.7831 14.81212,-32.71398 14.78522,-32.96985c-0.39602,-3.53458 -4.67144,-6.16396 -7.80986,-4.45053c-12.72103,7.01536 -65.55141,51.00895 -67.79836,52.87314c-0.28018,0.22899 -0.43374,0.52264 -0.6358,0.80285c-11.02374,10.32097 -17.8991,24.21375 -17.8991,39.56175c0,20.14606 9.00852,35.92786 24.30272,45.58605c-6.53307,13.17897 -12.09343,29.40837 -16.47147,48.55716l10.18096,2.32227c4.19728,-18.29773 9.45611,-33.71883 15.6149,-46.14882c8.90645,3.64775 19.14948,5.81643 30.81186,5.81643c11.51962,0 21.72748,-2.23337 30.63392,-5.94575c6.19899,12.08308 11.54652,27.23935 15.84663,45.27845l10.15406,-2.42462c-4.49095,-18.85568 -10.11889,-34.80438 -16.71355,-47.62817c15.34248,-9.76578 24.53997,-25.58827 24.53997,-45.41363l-0.00146,0.00131zm-71.08466,-57.39947c-0.4957,0.10238 -0.91865,0.35561 -1.32548,0.5873c-0.48223,0.05119 -0.98334,0.07544 -1.4548,0.14009c10.02716,-8.06297 20.22123,-16.0756 27.59522,-21.47161c-2.18489,7.41123 -8.27057,17.05563 -24.81446,20.744l-0.00048,0.00022zm-47.34747,57.39947c0,-12.87207 5.98347,-24.53445 15.6149,-33.03192c0.19397,-0.1805 0.44721,-0.38256 0.64927,-0.54959c9.74716,-8.31884 23.042,-13.48657 37.72722,-13.48657c29.76355,0 53.98075,21.11574 53.98075,47.06471c0,27.74833 -21.1916,45.67501 -53.99386,45.67501c-33.29537,0.0027 -53.97799,-17.50047 -53.97799,-45.67226l-0.00028,0.00061z" id="svg_5"/>
  </g>
 </g>

</svg>