<?xml version="1.0" encoding="UTF-8"?>
<svg width="256pt" height="256pt" version="1.1" viewBox="0 0 752 752" xmlns="http://www.w3.org/2000/svg">
 <g>
  <path d="m347.04 379.65c-6.0664 0-11.008-4.957-11.008-11.043 0-6.0664 4.9375-11.008 11.008-11.008 6.0859 0 11.043 4.9375 11.043 11.008 0 6.0898-4.957 11.043-11.043 11.043zm0-14.461c-1.8867 0-3.4258 1.5352-3.4258 3.4258 0 1.9023 1.5352 3.457 3.4258 3.457 1.9023 0 3.457-1.5547 3.457-3.457 0-1.8945-1.5547-3.4258-3.457-3.4258z"/>
  <path d="m404.16 379.65c-6.0859 0-11.043-4.957-11.043-11.043 0-6.0664 4.957-11.008 11.043-11.008 6.0859 0 11.023 4.9375 11.023 11.008 0.003906 6.0898-4.9375 11.043-11.023 11.043zm0-14.461c-1.9023 0-3.457 1.5352-3.457 3.4258 0 1.9023 1.5547 3.457 3.457 3.457 1.9023 0 3.4414-1.5547 3.4414-3.457 0.003906-1.8945-1.5312-3.4258-3.4414-3.4258z"/>
  <path d="m399.58 404.28c0.37109-0.51562 0.64844-1.0391 0.81641-1.4766 0.73828-1.9414 1.1289-5.9375-4.4219-10.785l-6.7734-5.918c-7.0469-6.1797-19.312-6.25-26.473-0.18359l-7.3086 6.2148c-5.625 4.793-5.2695 8.7695-4.5703 10.695 0.16406 0.44531 0.44531 0.96094 0.79688 1.4766-0.22266 0.38672-0.44531 0.77734-0.57422 1.1445-0.69922 2.293-0.3125 5.8633 5.6055 9.918l5.457 3.6602c3.6992 2.5352 8.5664 3.9219 13.691 3.9219 5.2539 0 10.23-1.4648 14.004-4.0859l4.8438-3.3867c5.8633-4.0859 6.2305-7.6953 5.5117-9.9883-0.12891-0.39062-0.37109-0.79688-0.60547-1.207zm-39.242-6.3828 7.3086-6.2148c4.3867-3.6992 12.227-3.6602 16.555 0.10937l6.7734 5.918c1.3672 1.2031 1.9219 2.0352 2.2227 2.2578-0.44531 0.18359-1.4258 0.46484-3.2383 0.46484h-28.695c-1.3125 0-2.2031-0.14844-2.7188-0.14844-0.18359 0-0.3125 0.019531-0.40625 0.074219 0.23828-0.46094 0.85156-1.3125 2.1992-2.4609zm30.008 11.355-4.8438 3.3867c-4.9023 3.4414-14.207 3.4766-19.109 0.10938l-5.457-3.6602c-0.53516-0.37109-0.98047-0.69922-1.332-1 0.46484-0.058594 1-0.074219 1.668-0.074219h28.695c0.75781 0 1.3672 0.039062 1.8516 0.09375-0.35937 0.33594-0.84375 0.70703-1.4727 1.1445z"/>
  <path d="m469.45 374.05c0-39.312-30.746-72.164-71.832-80.934 24.145-18.535 21.477-47.434 21.438-47.805-0.57422-5.125-6.7734-8.9375-11.324-6.4531-18.445 10.172-95.047 73.961-98.305 76.664-0.40625 0.33203-0.62891 0.75781-0.92188 1.1641-15.984 14.965-25.953 35.109-25.953 57.363 0 29.211 13.062 52.094 35.238 66.098-9.4727 19.109-17.535 42.641-23.883 70.406l14.762 3.3672c6.0859-26.531 13.711-48.891 22.641-66.914 12.914 5.2891 27.766 8.4336 44.676 8.4336 16.703 0 31.504-3.2383 44.418-8.6211 8.9883 17.52 16.742 39.496 22.977 65.652l14.723-3.5156c-6.5117-27.34-14.672-50.465-24.234-69.059 22.246-14.16 35.582-37.102 35.582-65.848zm-103.07-83.227c-0.71875 0.14844-1.332 0.51562-1.9219 0.85156-0.69922 0.074219-1.4258 0.10938-2.1094 0.20312 14.539-11.691 29.32-23.309 40.012-31.133-3.168 10.746-11.992 24.73-35.98 30.078zm-68.652 83.227c0-18.664 8.6758-35.574 22.641-47.895 0.28125-0.26172 0.64844-0.55469 0.94141-0.79688 14.133-12.062 33.41-19.555 54.703-19.555 43.156 0 78.27 30.617 78.27 68.242 0 40.234-30.727 66.227-78.289 66.227-48.277 0.003906-78.266-25.375-78.266-66.223z"/>
 </g>
</svg>
